{
  "source": "C:\\Users\\Peter\\Desktop\\stuff\\MIUN\\quantitative_research\\video_compression\\videos\\BVI-HD\\BVI-HD_CDVL_videos\\ORIG\\PaintingTilting_1920x1080_60fps.mp4",
  "output": "C:\\Users\\Peter\\Desktop\\stuff\\MIUN\\quantitative_research\\video_compression\\compressed_videos\\BVI-HD\\vp9\\4\\PaintingTilting_1920x1080_60fps_vp9.webm",
  "codec": "vp9",
  "ok": "Input #0, mov,mp4,m4a,3gp,3g2,mj2, from 'C:\\Users\\Peter\\Desktop\\stuff\\MIUN\\quantitative_research\\video_compression\\videos\\BVI-HD\\BVI-HD_CDVL_videos\\ORIG\\PaintingTilting_1920x1080_60fps.mp4':\n  Metadata:\n    major_brand     : isom\n    minor_version   : 512\n    compatible_brands: isomiso2avc1mp41\n    encoder         : Lavf54.28.101\n  Duration: 00:00:05.00, start: 0.000000, bitrate: 667707 kb/s\n  Stream #0:0[0x1](und): Video: h264 (High 4:4:4 Predictive) (avc1 / 0x31637661), yuv420p(progressive), 1920x1080, 667702 kb/s, 60 fps, 60 tbr, 60 tbn (default)\n    Metadata:\n      handler_name    : VideoHandler\n      vendor_id       : [0][0][0][0]\n[out#0/webm @ 0000018b9b3f9180] Codec AVOption b:a (set bitrate (in bits/s)) has not been used for any stream. The most likely reason is either wrong type (e.g. a video option with no video streams) or that it is a private option of some decoder which was not actually used for any stream.\nStream mapping:\n  Stream #0:0 -> #0:0 (h264 (native) -> vp9 (libvpx-vp9))\nPress [q] to stop, [?] for help\n[libvpx-vp9 @ 0000018b9c0500c0] v1.15.2-100-g40561f514\nOutput #0, webm, to 'C:\\Users\\Peter\\Desktop\\stuff\\MIUN\\quantitative_research\\video_compression\\compressed_videos\\BVI-HD\\vp9\\4\\PaintingTilting_1920x1080_60fps_vp9.webm':\n  Metadata:\n    major_brand     : isom\n    minor_version   : 512\n    compatible_brands: isomiso2avc1mp41\n    encoder         : Lavf62.3.100\n  Stream #0:0(und): Video: vp9, yuv420p(tv, progressive), 1920x1080, q=2-31, 4000 kb/s, 60 fps, 1k tbn (default)\n    Metadata:\n      encoder         : Lavc62.11.100 libvpx-vp9\n      handler_name    : VideoHandler\n      vendor_id       : [0][0][0][0]\n    Side data:\n      cpb: bitrate max/min/avg: 0/0/0 buffer size: 4000000 vbv_delay: N/A\nframe=    0 fps=0.0 q=0.0 size=       0KiB time=N/A bitrate=N/A speed=N/A elapsed=0:00:00.51    \nframe=    2 fps=1.9 q=48.0 size=       1KiB time=00:00:00.03 bitrate= 151.9kbits/s speed=0.0321x elapsed=0:00:01.03    \nframe=    7 fps=4.5 q=35.0 size=       1KiB time=00:00:00.11 bitrate=  43.4kbits/s speed=0.0745x elapsed=0:00:01.56    \nframe=   10 fps=4.8 q=36.0 size=       1KiB time=00:00:00.16 bitrate=  30.4kbits/s speed=0.0795x elapsed=0:00:02.09    \nframe=   13 fps=5.0 q=26.0 size=       1KiB time=00:00:00.21 bitrate=  23.4kbits/s speed=0.0827x elapsed=0:00:02.61    \nframe=   17 fps=5.4 q=33.0 size=       1KiB time=00:00:00.28 bitrate=  17.9kbits/s speed=0.0902x elapsed=0:00:03.14    \nframe=   20 fps=5.4 q=34.0 size=       1KiB time=00:00:00.33 bitrate=  15.2kbits/s speed=0.0903x elapsed=0:00:03.69    \nframe=   23 fps=5.4 q=35.0 size=       1KiB time=00:00:00.38 bitrate=  13.2kbits/s speed=0.0905x elapsed=0:00:04.23    \nframe=   26 fps=5.4 q=35.0 size=       1KiB time=00:00:00.43 bitrate=  11.7kbits/s speed=0.0905x elapsed=0:00:04.78    \nframe=   29 fps=5.4 q=33.0 size=       1KiB time=00:00:00.48 bitrate=  10.5kbits/s speed=0.0908x elapsed=0:00:05.32    \nframe=   32 fps=5.5 q=34.0 size=       1KiB time=00:00:00.53 bitrate=   9.5kbits/s speed=0.0913x elapsed=0:00:05.84    \nframe=   36 fps=5.7 q=34.0 size=       1KiB time=00:00:00.60 bitrate=   8.4kbits/s speed=0.0943x elapsed=0:00:06.36    \nframe=   39 fps=5.7 q=32.0 size=       1KiB time=00:00:00.65 bitrate=   7.8kbits/s speed=0.0942x elapsed=0:00:06.90    \nframe=   42 fps=5.7 q=34.0 size=       1KiB time=00:00:00.70 bitrate=   7.2kbits/s speed=0.0943x elapsed=0:00:07.42    \nframe=   46 fps=5.8 q=34.0 size=       1KiB time=00:00:00.76 bitrate=   6.6kbits/s speed=0.0966x elapsed=0:00:07.93    \nframe=   50 fps=5.9 q=34.0 size=       1KiB time=00:00:00.81 bitrate=   6.2kbits/s speed=0.0965x elapsed=0:00:08.46    \nframe=   53 fps=5.9 q=32.0 size=       1KiB time=00:00:00.88 bitrate=   5.7kbits/s speed=0.0978x elapsed=0:00:09.03    \nframe=   56 fps=5.8 q=33.0 size=       1KiB time=00:00:00.93 bitrate=   5.4kbits/s speed=0.0972x elapsed=0:00:09.60    \nframe=   59 fps=5.8 q=34.0 size=       1KiB time=00:00:00.98 bitrate=   5.1kbits/s speed=0.0969x elapsed=0:00:10.15    \nframe=   62 fps=5.8 q=34.0 size=       1KiB time=00:00:01.03 bitrate=   4.9kbits/s speed=0.0969x elapsed=0:00:10.66    \nframe=   65 fps=5.8 q=33.0 size=       1KiB time=00:00:01.08 bitrate=   4.7kbits/s speed=0.0969x elapsed=0:00:11.17    \nframe=   68 fps=5.8 q=33.0 size=       1KiB time=00:00:01.13 bitrate=   4.5kbits/s speed=0.0967x elapsed=0:00:11.71    \nframe=   71 fps=5.8 q=34.0 size=       1KiB time=00:00:01.18 bitrate=   4.3kbits/s speed=0.0966x elapsed=0:00:12.24    \nframe=   74 fps=5.8 q=35.0 size=       1KiB time=00:00:01.23 bitrate=   4.1kbits/s speed=0.0964x elapsed=0:00:12.79    \nframe=   77 fps=5.8 q=33.0 size=       1KiB time=00:00:01.28 bitrate=   3.9kbits/s speed=0.0962x elapsed=0:00:13.34    \nframe=   80 fps=5.8 q=33.0 size=       1KiB time=00:00:01.33 bitrate=   3.8kbits/s speed=0.096x elapsed=0:00:13.89    \nframe=   83 fps=5.7 q=34.0 size=       1KiB time=00:00:01.38 bitrate=   3.7kbits/s speed=0.0958x elapsed=0:00:14.44    \nframe=   86 fps=5.7 q=34.0 size=       1KiB time=00:00:01.43 bitrate=   3.5kbits/s speed=0.0957x elapsed=0:00:14.97    \nframe=   89 fps=5.7 q=33.0 size=       1KiB time=00:00:01.48 bitrate=   3.4kbits/s speed=0.0956x elapsed=0:00:15.50    \nframe=   92 fps=5.7 q=33.0 size=       1KiB time=00:00:01.53 bitrate=   3.3kbits/s speed=0.0956x elapsed=0:00:16.04    \nframe=   95 fps=5.7 q=33.0 size=       1KiB time=00:00:01.58 bitrate=   3.2kbits/s speed=0.0955x elapsed=0:00:16.58    \nframe=   97 fps=5.7 q=25.0 size=       1KiB time=00:00:01.61 bitrate=   3.1kbits/s speed=0.0945x elapsed=0:00:17.11    \nframe=  100 fps=5.7 q=33.0 size=       1KiB time=00:00:01.66 bitrate=   3.0kbits/s speed=0.0944x elapsed=0:00:17.65    \nframe=  103 fps=5.7 q=33.0 size=       1KiB time=00:00:01.71 bitrate=   2.9kbits/s speed=0.0944x elapsed=0:00:18.18    \nframe=  106 fps=5.7 q=33.0 size=       1KiB time=00:00:01.76 bitrate=   2.9kbits/s speed=0.0943x elapsed=0:00:18.73    \nframe=  109 fps=5.7 q=25.0 size=       1KiB time=00:00:01.81 bitrate=   2.8kbits/s speed=0.0943x elapsed=0:00:19.25    \nframe=  112 fps=5.7 q=33.0 size=       1KiB time=00:00:01.86 bitrate=   2.7kbits/s speed=0.0944x elapsed=0:00:19.77    \nframe=  115 fps=5.7 q=34.0 size=       1KiB time=00:00:01.91 bitrate=   2.6kbits/s speed=0.0943x elapsed=0:00:20.31    \nframe=  118 fps=5.7 q=34.0 size=       1KiB time=00:00:01.96 bitrate=   2.6kbits/s speed=0.0943x elapsed=0:00:20.86    \nframe=  121 fps=5.7 q=33.0 size=       1KiB time=00:00:02.01 bitrate=   2.5kbits/s speed=0.0942x elapsed=0:00:21.40    \nframe=  124 fps=5.7 q=36.0 size=       1KiB time=00:00:02.06 bitrate=   2.5kbits/s speed=0.0943x elapsed=0:00:21.92    \nframe=  127 fps=5.7 q=35.0 size=       1KiB time=00:00:02.11 bitrate=   2.4kbits/s speed=0.0942x elapsed=0:00:22.46    \nframe=  130 fps=5.7 q=34.0 size=    1536KiB time=00:00:02.15 bitrate=5852.5kbits/s speed=0.0935x elapsed=0:00:22.99    \nframe=  133 fps=5.7 q=33.0 size=    1536KiB time=00:00:02.21 bitrate=5676.5kbits/s speed=0.0942x elapsed=0:00:23.53    \nframe=  136 fps=5.7 q=34.0 size=    1536KiB time=00:00:02.26 bitrate=5551.3kbits/s speed=0.0942x elapsed=0:00:24.06    \nframe=  139 fps=5.6 q=34.0 size=    1536KiB time=00:00:02.31 bitrate=5431.5kbits/s speed=0.0941x elapsed=0:00:24.61    \nframe=  142 fps=5.6 q=33.0 size=    1536KiB time=00:00:02.35 bitrate=5354.4kbits/s speed=0.0934x elapsed=0:00:25.15    \nframe=  144 fps=5.6 q=33.0 size=    1536KiB time=00:00:02.40 bitrate=5242.9kbits/s speed=0.0934x elapsed=0:00:25.68    \nframe=  147 fps=5.6 q=34.0 size=    1536KiB time=00:00:02.45 bitrate=5135.9kbits/s speed=0.0935x elapsed=0:00:26.21    \nframe=  149 fps=5.6 q=34.0 size=    1536KiB time=00:00:02.48 bitrate=5066.9kbits/s speed=0.0929x elapsed=0:00:26.73    \nframe=  152 fps=5.6 q=26.0 size=    1536KiB time=00:00:02.53 bitrate=4966.9kbits/s speed=0.0929x elapsed=0:00:27.25    \nframe=  155 fps=5.6 q=34.0 size=    1536KiB time=00:00:02.58 bitrate=4870.8kbits/s speed=0.0929x elapsed=0:00:27.80    \nframe=  157 fps=5.5 q=34.0 size=    1536KiB time=00:00:02.61 bitrate=4808.8kbits/s speed=0.0923x elapsed=0:00:28.33    \nframe=  160 fps=5.5 q=34.0 size=    1536KiB time=00:00:02.66 bitrate=4718.6kbits/s speed=0.0924x elapsed=0:00:28.85    \nframe=  163 fps=5.5 q=34.0 size=    1536KiB time=00:00:02.71 bitrate=4631.7kbits/s speed=0.0925x elapsed=0:00:29.37    \nframe=  166 fps=5.6 q=33.0 size=    1536KiB time=00:00:02.76 bitrate=4548.0kbits/s speed=0.0925x elapsed=0:00:29.90    \nframe=  169 fps=5.6 q=35.0 size=    1536KiB time=00:00:02.81 bitrate=4467.3kbits/s speed=0.0925x elapsed=0:00:30.44    \nframe=  172 fps=5.5 q=34.0 size=    1536KiB time=00:00:02.86 bitrate=4389.4kbits/s speed=0.0925x elapsed=0:00:31.00    \nframe=  175 fps=5.5 q=35.0 size=    1536KiB time=00:00:02.91 bitrate=4314.1kbits/s speed=0.0924x elapsed=0:00:31.55    \nframe=  178 fps=5.5 q=33.0 size=    1536KiB time=00:00:02.96 bitrate=4241.4kbits/s speed=0.0924x elapsed=0:00:32.10    \nframe=  181 fps=5.5 q=34.0 size=    1536KiB time=00:00:03.01 bitrate=4171.1kbits/s speed=0.0924x elapsed=0:00:32.64    \nframe=  184 fps=5.5 q=35.0 size=    1536KiB time=00:00:03.05 bitrate=4125.5kbits/s speed=0.0919x elapsed=0:00:33.17    \nframe=  187 fps=5.5 q=35.0 size=    1536KiB time=00:00:03.11 bitrate=4037.3kbits/s speed=0.0925x elapsed=0:00:33.69    \nframe=  189 fps=5.5 q=34.0 size=    1536KiB time=00:00:03.15 bitrate=3994.6kbits/s speed=0.092x elapsed=0:00:34.25    \nframe=  192 fps=5.5 q=33.0 size=    1536KiB time=00:00:03.20 bitrate=3932.2kbits/s speed=0.0921x elapsed=0:00:34.75    \nframe=  195 fps=5.5 q=33.0 size=    1536KiB time=00:00:03.25 bitrate=3871.7kbits/s speed=0.0921x elapsed=0:00:35.30    \nframe=  198 fps=5.5 q=34.0 size=    1536KiB time=00:00:03.30 bitrate=3813.0kbits/s speed=0.0921x elapsed=0:00:35.84    \nframe=  201 fps=5.5 q=34.0 size=    1536KiB time=00:00:03.35 bitrate=3756.1kbits/s speed=0.0921x elapsed=0:00:36.36    \nframe=  204 fps=5.5 q=33.0 size=    1536KiB time=00:00:03.40 bitrate=3700.9kbits/s speed=0.0921x elapsed=0:00:36.90    \nframe=  208 fps=5.6 q=35.0 size=    1536KiB time=00:00:03.46 bitrate=3629.7kbits/s speed=0.0926x elapsed=0:00:37.44    \nframe=  211 fps=5.6 q=35.0 size=    1536KiB time=00:00:03.51 bitrate=3578.1kbits/s speed=0.0926x elapsed=0:00:37.97    \nframe=  213 fps=5.5 q=35.0 size=    1536KiB time=00:00:03.55 bitrate=3544.5kbits/s speed=0.0922x elapsed=0:00:38.51    \nframe=  217 fps=5.6 q=34.0 size=    1536KiB time=00:00:03.61 bitrate=3479.1kbits/s speed=0.0927x elapsed=0:00:39.01    \nframe=  220 fps=5.6 q=35.0 size=    1536KiB time=00:00:03.66 bitrate=3431.7kbits/s speed=0.0927x elapsed=0:00:39.55    \nframe=  223 fps=5.6 q=34.0 size=    1536KiB time=00:00:03.71 bitrate=3385.5kbits/s speed=0.0927x elapsed=0:00:40.09    \nframe=  226 fps=5.6 q=33.0 size=    1536KiB time=00:00:03.76 bitrate=3340.6kbits/s speed=0.0927x elapsed=0:00:40.65    \nframe=  229 fps=5.6 q=35.0 size=    1536KiB time=00:00:03.81 bitrate=3296.8kbits/s speed=0.0927x elapsed=0:00:41.18    \nframe=  232 fps=5.6 q=34.0 size=    1536KiB time=00:00:03.86 bitrate=3254.2kbits/s speed=0.0927x elapsed=0:00:41.71    \nframe=  234 fps=5.5 q=34.0 size=    1536KiB time=00:00:03.90 bitrate=3226.4kbits/s speed=0.0923x elapsed=0:00:42.24    \nframe=  237 fps=5.5 q=35.0 size=    1536KiB time=00:00:03.95 bitrate=3185.5kbits/s speed=0.0923x elapsed=0:00:42.77    \nframe=  239 fps=5.5 q=33.0 size=    1536KiB time=00:00:03.98 bitrate=3158.9kbits/s speed=0.092x elapsed=0:00:43.31    \nframe=  241 fps=5.5 q=34.0 size=    1536KiB time=00:00:04.01 bitrate=3132.7kbits/s speed=0.0914x elapsed=0:00:43.92    \nframe=  243 fps=5.5 q=33.0 size=    1536KiB time=00:00:04.05 bitrate=3106.9kbits/s speed=0.0911x elapsed=0:00:44.48    \nframe=  244 fps=5.4 q=34.0 size=    1536KiB time=00:00:04.06 bitrate=3094.2kbits/s speed=0.0902x elapsed=0:00:45.10    \nframe=  245 fps=5.4 q=34.0 size=    1536KiB time=00:00:04.08 bitrate=3081.5kbits/s speed=0.0893x elapsed=0:00:45.72    \nframe=  248 fps=5.4 q=33.0 size=    1536KiB time=00:00:04.11 bitrate=3056.6kbits/s speed=0.089x elapsed=0:00:46.25    \nframe=  249 fps=5.3 q=33.0 size=    1536KiB time=00:00:04.15 bitrate=3032.0kbits/s speed=0.0886x elapsed=0:00:46.82    \nframe=  252 fps=5.3 q=33.0 size=    1536KiB time=00:00:04.20 bitrate=2995.9kbits/s speed=0.0886x elapsed=0:00:47.38    \nframe=  255 fps=5.3 q=33.0 size=    1536KiB time=00:00:04.25 bitrate=2960.7kbits/s speed=0.0886x elapsed=0:00:47.94    \nframe=  256 fps=5.3 q=33.0 size=    1536KiB time=00:00:04.26 bitrate=2949.1kbits/s speed=0.088x elapsed=0:00:48.49    \nframe=  258 fps=5.3 q=33.0 size=    3072KiB time=00:00:04.30 bitrate=5852.5kbits/s speed=0.0877x elapsed=0:00:49.05    \nframe=  260 fps=5.2 q=35.0 size=    3072KiB time=00:00:04.33 bitrate=5807.5kbits/s speed=0.0871x elapsed=0:00:49.75    \nframe=  262 fps=5.2 q=34.0 size=    3072KiB time=00:00:04.36 bitrate=5763.2kbits/s speed=0.0867x elapsed=0:00:50.37    \nframe=  263 fps=5.2 q=34.0 size=    3072KiB time=00:00:04.38 bitrate=5741.3kbits/s speed=0.086x elapsed=0:00:50.97    \nframe=  266 fps=5.2 q=34.0 size=    3072KiB time=00:00:04.41 bitrate=5697.9kbits/s speed=0.0857x elapsed=0:00:51.50    \nframe=  267 fps=5.1 q=34.0 size=    3072KiB time=00:00:04.45 bitrate=5655.2kbits/s speed=0.0855x elapsed=0:00:52.06    \nframe=  269 fps=5.1 q=26.0 size=    3072KiB time=00:00:04.48 bitrate=5613.2kbits/s speed=0.0853x elapsed=0:00:52.58    \nframe=  271 fps=5.1 q=33.0 size=    3072KiB time=00:00:04.51 bitrate=5571.8kbits/s speed=0.0849x elapsed=0:00:53.20    \nframe=  273 fps=5.1 q=33.0 size=    3072KiB time=00:00:04.55 bitrate=5531.0kbits/s speed=0.0846x elapsed=0:00:53.80    \nframe=  275 fps=5.1 q=34.0 size=    3072KiB time=00:00:04.58 bitrate=5490.7kbits/s speed=0.0843x elapsed=0:00:54.36    \nframe=  276 fps=5.0 q=33.0 size=    3072KiB time=00:00:04.60 bitrate=5470.8kbits/s speed=0.0838x elapsed=0:00:54.91    \nframe=  276 fps=5.0 q=33.0 size=    3072KiB time=00:00:04.60 bitrate=5470.8kbits/s speed=0.083x elapsed=0:00:55.43    \nframe=  276 fps=4.9 q=33.0 size=    3072KiB time=00:00:04.60 bitrate=5470.8kbits/s speed=0.0822x elapsed=0:00:55.97    \nframe=  276 fps=4.9 q=33.0 size=    3072KiB time=00:00:04.60 bitrate=5470.8kbits/s speed=0.0814x elapsed=0:00:56.52    \nframe=  276 fps=4.8 q=33.0 size=    3072KiB time=00:00:04.60 bitrate=5470.8kbits/s speed=0.0805x elapsed=0:00:57.10    \nframe=  276 fps=4.8 q=33.0 size=    3072KiB time=00:00:04.60 bitrate=5470.8kbits/s speed=0.0797x elapsed=0:00:57.69    \nframe=  276 fps=4.7 q=33.0 size=    3072KiB time=00:00:04.60 bitrate=5470.8kbits/s speed=0.0789x elapsed=0:00:58.28    \nframe=  276 fps=4.7 q=33.0 size=    3072KiB time=00:00:04.60 bitrate=5470.8kbits/s speed=0.0781x elapsed=0:00:58.86    \nframe=  276 fps=4.6 q=33.0 size=    3072KiB time=00:00:04.60 bitrate=5470.8kbits/s speed=0.0774x elapsed=0:00:59.43    \nframe=  276 fps=4.6 q=33.0 size=    3072KiB time=00:00:04.60 bitrate=5470.8kbits/s speed=0.0766x elapsed=0:01:00.05    \nframe=  276 fps=4.6 q=33.0 size=    3072KiB time=00:00:04.60 bitrate=5470.8kbits/s speed=0.0758x elapsed=0:01:00.65    \nframe=  276 fps=4.5 q=33.0 size=    3072KiB time=00:00:04.60 bitrate=5470.8kbits/s speed=0.0752x elapsed=0:01:01.19    \n[out#0/webm @ 0000018b9b3f9180] video:3865KiB audio:0KiB subtitle:0KiB other streams:0KiB global headers:0KiB muxing overhead: 0.072031%\nframe=  300 fps=4.9 q=33.0 Lsize=    3868KiB time=00:00:05.00 bitrate=6337.4kbits/s speed=0.0811x elapsed=0:01:01.65    \n",
  "seconds": 62.641018867492676,
  "probe_out": {}
}